/home/minht/3dpredictsim_tutorial/predsim_tutorial/Results/Case_13/GRF.mot
version=1
nRows=20
nColumns=19
inDegrees=yes
endheader 
time	r_ground_force_vx	r_ground_force_vy	r_ground_force_vz	r_ground_force_px	r_ground_force_py	r_ground_force_pz	l_ground_force_vx	l_ground_force_vy	l_ground_force_vz	l_ground_force_px	l_ground_force_py	l_ground_force_pz	r_ground_torque_x	r_ground_torque_y	r_ground_torque_z	l_ground_torque_x	l_ground_torque_y	l_ground_torque_z	
          1.01298592	        -11.49088787	        134.03368756	        -33.05323956	          4.05984782	          0.00000000	          0.30688336	        -30.29642530	        797.15406820	          1.44266670	          0.06898393	          0.00000000	         -0.01535124	          0.00000000	       -136.58435050	          0.00000000	          0.00000000	         14.23867416	          0.00000000	
          1.02833420	        -12.92661784	        121.51321233	        -33.11025415	          4.49699139	          0.00000000	          0.34195474	        -25.80515953	        798.72068592	         -0.42739960	          0.06272641	          0.00000000	         -0.01370146	          0.00000000	       -148.82917709	          0.00000000	          0.00000000	         14.45474539	          0.00000000	
          1.04368247	        -14.80563775	        108.51161267	        -32.31334142	          5.07349958	          0.00000000	          0.38877787	        -21.90200132	        802.98604935	         -2.10835756	          0.05598506	          0.00000000	         -0.01204306	          0.00000000	       -160.95771552	          0.00000000	          0.00000000	         14.35973141	          0.00000000	
          1.05903074	        -18.66196572	         91.56827780	        -28.75886965	          6.07801142	          0.00000000	          0.47001216	        -18.08334212	        810.24207355	         -3.78937925	          0.04704676	          0.00000000	         -0.00998914	          0.00000000	       -167.07894745	          0.00000000	          0.00000000	         13.30347183	          0.00000000	
          1.07437901	        -22.95503547	         70.52855819	        -23.30575391	          7.99954695	          0.00000000	          0.62488205	        -13.86703541	        820.08945253	         -5.55167126	          0.03599538	          0.00000000	         -0.00754936	          0.00000000	       -171.26853174	          0.00000000	          0.00000000	         11.50404843	          0.00000000	
          1.08972728	        -27.46699323	         46.73459538	        -16.69134454	         12.27167637	          0.00000000	          0.96890937	         -8.89504425	        832.56835591	         -7.41984568	          0.02364171	          0.00000000	         -0.00489826	          0.00000000	       -175.38381216	          0.00000000	          0.00000000	          9.23808290	          0.00000000	
          1.10507555	          0.00000000	          0.00000000	          0.00000000	          0.00000000	          0.00000000	          0.00000000	         -3.38918955	        844.47724236	         -8.99395605	          0.01105762	          0.00000000	         -0.00223399	          0.00000000	          0.00000000	          0.00000000	          0.00000000	          3.40673745	          0.00000000	
          1.12042382	          0.00000000	          0.00000000	          0.00000000	          0.00000000	          0.00000000	          0.00000000	          2.33967081	        850.88698745	        -10.57035214	          0.00269978	          0.00000000	         -0.00053031	          0.00000000	          0.00000000	          0.00000000	          0.00000000	          0.45362913	          0.00000000	
          1.13577210	          0.00000000	          0.00000000	          0.00000000	          0.00000000	          0.00000000	          0.00000000	          7.69300912	        851.23307712	        -12.52616052	          0.00104104	          0.00000000	         -0.00019694	          0.00000000	          0.00000000	          0.00000000	          0.00000000	          0.12959412	          0.00000000	
          1.15112037	          0.00000000	          0.00000000	          0.00000000	          0.00000000	          0.00000000	          0.00000000	         12.68783692	        849.78241462	        -14.63399752	          0.00069560	          0.00000000	         -0.00012639	          0.00000000	          0.00000000	          0.00000000	          0.00000000	          0.07352533	          0.00000000	
          1.16646864	          0.00000000	          0.00000000	          0.00000000	          0.00000000	          0.00000000	          0.00000000	         17.53266574	        848.84858380	        -16.62227880	          0.00046974	          0.00000000	         -0.00008296	          0.00000000	          0.00000000	          0.00000000	          0.00000000	          0.04672262	          0.00000000	
          1.18181691	          0.00000000	          0.00000000	          0.00000000	          0.00000000	          0.00000000	          0.00000000	         22.45573502	        849.59104833	        -18.53970695	          0.00037996	          0.00000000	         -0.00006540	          0.00000000	          0.00000000	          0.00000000	          0.00000000	          0.03734397	          0.00000000	
          1.19716518	          0.00000000	          0.00000000	          0.00000000	          0.00000000	          0.00000000	          0.00000000	         27.36783387	        852.19698451	        -20.22451704	          0.00038848	          0.00000000	         -0.00006517	          0.00000000	          0.00000000	          0.00000000	          0.00000000	          0.03905063	          0.00000000	
          1.21251345	          0.00000000	          0.00000000	          0.00000000	          0.00000000	          0.00000000	          0.00000000	         32.35198908	        856.41376799	        -21.60726710	          0.00047285	          0.00000000	         -0.00007726	          0.00000000	          0.00000000	          0.00000000	          0.00000000	          0.04961069	          0.00000000	
          1.22786173	          0.00000000	          0.00000000	          0.00000000	          0.00000000	          0.00000000	          0.00000000	         37.61189631	        861.46041669	        -22.68269442	          0.00062689	          0.00000000	         -0.00009966	          0.00000000	          0.00000000	          0.00000000	          0.00000000	          0.06985484	          0.00000000	
          1.24321000	          0.00000000	          0.00000000	          0.00000000	          0.00000000	          0.00000000	          0.00000000	         42.65190209	        866.92028323	        -23.42417014	          0.00083326	          0.00000000	         -0.00012870	          0.00000000	          0.00000000	          0.00000000	          0.00000000	          0.10005322	          0.00000000	
          1.25855827	          0.00000000	          0.00000000	          0.00000000	          0.00000000	          0.00000000	          0.00000000	         46.96671082	        872.27798305	        -23.83228043	          0.00104840	          0.00000000	         -0.00015706	          0.00000000	          0.00000000	          0.00000000	          0.00000000	          0.13717119	          0.00000000	
          1.27390654	          0.00000000	          0.00000000	          0.00000000	          0.00000000	          0.00000000	          0.00000000	         50.96379104	        877.90578253	        -24.16812973	          0.00121601	          0.00000000	         -0.00017631	          0.00000000	          0.00000000	          0.00000000	          0.00000000	          0.17421995	          0.00000000	
          1.28925481	          0.00000000	          0.00000000	          0.00000000	          0.00000000	          0.00000000	          0.00000000	         53.74314514	        882.99730426	        -24.29544476	          0.00129446	          0.00000000	         -0.00018118	          0.00000000	          0.00000000	          0.00000000	          0.00000000	          0.20317868	          0.00000000	
          1.30460308	          0.00000000	          0.00000000	          0.00000000	          0.00000000	          0.00000000	          0.00000000	         56.46446850	        887.10132181	        -24.30740811	          0.00127195	          0.00000000	         -0.00017136	          0.00000000	          0.00000000	          0.00000000	          0.00000000	          0.21800370	          0.00000000	
